# xmcd
#
# Track frame offsets:
#	150
#	10562
#	20487
#	37000
#	48387
#	60050
#	72750
#	85275
#	99187
#	115575
#	127987
#	139962
#	153537
#	164912
#	175450
#	194112
#	206275
#	215712
#	226437
#	241500
#	251112
#	271275
#
# Disc length: 3780
#
# Revision: 3
# Processed by: cddbd v1.5.1PL0 Copyright (c) Steve Scherf et al.
# Submitted via: audiograbber 1.81.03
# Normalized: r1:TRMNUM;r2:DSETVAR1,TDELIM( - )
#
DISCID=320ec216
DTITLE=Various Artist - Country On The Move
DYEAR=1997
DGENRE=Country
TTITLE0=Faron Young - King Of The Road
TTITLE1=Dave Dudley - Six Days On The Road
TTITLE2=Johnny Cash - City Of New Orleans
TTITLE3=Red Soving - Woman Behind The Man - Behind The Wheel
TTITLE4=The John Davis Band - The Race Is On
TTITLE5=Johnny Dollar - Big Rig Rollin' Man
TTITLE6=Bob Wills - Take Me Back To Tulsa
TTITLE7=Red Simpson - I Got A Beaver On My Lap
TTITLE8=Mac Wiseman - 18 Wheels Hummin' Home
TTITLE9=Kenny Rogers - Me And Bobby McGhee
TTITLE10=Don Williams - Follow Me Back To Louisville
TTITLE11=Jack Greene - California Turnaround
TTITLE12=Delaney's All Stars - Walk On By
TTITLE13=Willie Nelson - On The Road Again
TTITLE14=Bobby Bare - The Jogger
TTITLE15=Johnny Dollar - Big Wheels Singing For Me
TTITLE16=Dave Dudley - Keep On Truckin'
TTITLE17=Red Sovine - Long Night
TTITLE18=The Buckeroos - Rollin' Back To Tennessee
TTITLE19=Hank Locklin - Flying South
TTITLE20=Pat O'Sullivan - Margaritaville
TTITLE21=Dave Dudley - There Ain't No Easy Run
EXTD=
EXTT0=
EXTT1=
EXTT2=
EXTT3=
EXTT4=
EXTT5=
EXTT6=
EXTT7=
EXTT8=
EXTT9=
EXTT10=
EXTT11=
EXTT12=
EXTT13=
EXTT14=
EXTT15=
EXTT16=
EXTT17=
EXTT18=
EXTT19=
EXTT20=
EXTT21=
PLAYORDER=
